<svg xmlns="http://www.w3.org/2000/svg" xmlns:xlink="http://www.w3.org/1999/xlink" viewBox="0 0 1062.99 425.59"><defs><style>.cls-1{fill:url(#Unbenannter_Verlauf_21);}.cls-2,.cls-3{fill:#fff;}.cls-3{stroke:#fff;stroke-miterlimit:10;stroke-width:5px;}</style><linearGradient id="Unbenannter_Verlauf_21" x1="-0.98" y1="212.8" x2="1062.01" y2="212.8" gradientUnits="userSpaceOnUse"><stop offset="0.15" stop-color="#a0a0a0"/><stop offset="0.85" stop-color="#bebebe"/></linearGradient></defs><title>Association_Community</title><g id="Gestaltungsraster_-_DO_NOT_EDIT" data-name="Gestaltungsraster - DO NOT EDIT"><g id="Community"><polygon id="Hintergrund" class="cls-1" points="-0.98 425.2 1062.02 425.59 1062.02 213.39 1062.02 0.39 -0.98 0 -0.98 425.2"/><g id="T3_Logo" data-name="T3 Logo"><path class="cls-2" d="M139.88,304.44v49.34H133V304.44H120.82v-6h31.23v6Zm36.9,23.64v25.7h-7.12v-25.7l-14.15-29.65h7.59l10.43,22.37L184,298.43h7.2Zm35.74,4.83h-6.64v20.87H199V298.43s6.81-.56,13.38-.56c12,0,15.49,7.44,15.49,17.17,0,12-4.11,17.87-15.34,17.87m.79-29.34a54.48,54.48,0,0,0-7.43.47v23.09h7.43c4.43,0,7.52-2.93,7.52-11.54,0-7.91-1.91-12-7.52-12m39.38,50.76c-13,0-16.52-9.49-16.52-28.85,0-18.59,3.48-27.61,16.52-27.61s16.52,9,16.52,27.61c0,19.36-3.47,28.85-16.52,28.85m0-50.69c-7.11,0-9.49,4.83-9.49,22.23,0,17,2.38,22.69,9.49,22.69s9.49-5.7,9.49-22.69c0-17.4-2.38-22.23-9.49-22.23m36.37,50.69A60.2,60.2,0,0,1,278.7,353v-5.76a62.2,62.2,0,0,0,10.29,1.2c4,0,6.64-3.41,6.64-9.51,0-7.19-1.18-11-6.8-11h-6.48v-5.78H288c6.42,0,6.72-6.56,6.72-9.72,0-6.25-2-8.79-5.92-8.79a50,50,0,0,0-9.72,1.35v-5.77a48.74,48.74,0,0,1,9.56-1.35c8.14,0,12.81,3.48,12.81,15.27,0,5.38-1.9,10.11-6.09,11.62,4.82.32,7,5.62,7,13.36,0,11.79-4.58,16.21-13.36,16.21"/><path class="cls-2" d="M257.63,196a25.12,25.12,0,0,1-7.66,1.09C226.91,197.11,193,116.5,193,89.68c0-9.88,2.33-13.17,5.64-16-28.23,3.3-62.11,13.66-72.94,26.83C123.4,103.8,122,109,122,115.57c0,41.87,44.7,136.9,76.23,136.9,14.59,0,39.18-24,59.42-56.45"/><path class="cls-2" d="M242.9,70.87c29.17,0,58.36,4.7,58.36,21.17,0,33.4-21.18,73.88-32,73.88C250,165.92,226,112.27,226,85.45c0-12.24,4.71-14.58,16.93-14.58"/></g><path class="cls-2" d="M473.87,107.61h12.22l14.18,45.16H489.46l-5.9-22.87c-1.26-4.52-2.46-9.85-3.67-14.56h-.28c-1.09,4.76-2.29,10-3.55,14.56l-5.93,22.87H459.69ZM469,134.08h21.73V142H469Z"/><path class="cls-2" d="M502.25,148.8l4.58-6.35c3.12,2.36,6,3.61,8.87,3.61s4.34-1.15,4.34-2.95c0-2.27-3.41-3.29-6.94-4.68-4.22-1.63-9.1-4.42-9.1-10.11,0-6.39,5.2-10.75,13.13-10.75a19.49,19.49,0,0,1,12.11,4.35L524.69,128c-2.45-1.77-4.86-2.93-7.24-2.93-2.63,0-3.92,1-3.92,2.74,0,2.19,3.21,3,6.77,4.33,4.36,1.61,9.26,4.06,9.26,10.34s-4.91,11.09-14.11,11.09A22.33,22.33,0,0,1,502.25,148.8Z"/><path class="cls-2" d="M532.94,148.8l4.58-6.35c3.11,2.36,6,3.61,8.87,3.61s4.34-1.15,4.34-2.95c0-2.27-3.41-3.29-6.94-4.68-4.22-1.63-9.1-4.42-9.1-10.11,0-6.39,5.2-10.75,13.13-10.75a19.49,19.49,0,0,1,12.11,4.35L555.38,128c-2.45-1.77-4.86-2.93-7.24-2.93-2.63,0-3.93,1-3.93,2.74,0,2.19,3.22,3,6.78,4.33,4.36,1.61,9.26,4.06,9.26,10.34s-4.91,11.09-14.12,11.09A22.32,22.32,0,0,1,532.94,148.8Z"/><path class="cls-2" d="M564.67,135.59c0-11.42,8.05-18,16.74-18s16.74,6.6,16.74,18-8,18-16.74,18S564.67,147,564.67,135.59Zm23.05,0c0-5.94-2.1-9.81-6.31-9.81s-6.3,3.87-6.3,9.81,2.09,9.79,6.3,9.79S587.72,141.54,587.72,135.59Z"/><path class="cls-2" d="M603.12,135.59c0-11.42,8.41-18,17.91-18a14.9,14.9,0,0,1,10,3.7l-4.81,6.54a7,7,0,0,0-4.66-2c-4.9,0-8,3.87-8,9.81s3.27,9.79,7.7,9.79a10.38,10.38,0,0,0,6.2-2.53l4,6.66a17.16,17.16,0,0,1-11.33,4.09C610.52,153.6,603.12,147,603.12,135.59Z"/><path class="cls-2" d="M636.68,108.05c0-3.13,2.48-5.33,5.89-5.33s5.9,2.2,5.9,5.33-2.48,5.32-5.9,5.32S636.68,111.14,636.68,108.05Zm.79,10.35h10.18v34.37H637.47Z"/><path class="cls-2" d="M655,143.23c0-7.24,5.76-11.16,19.35-12.59-.2-3-1.7-5-5.43-5-2.89,0-5.76,1.21-9.1,3.1l-3.62-6.68a28.08,28.08,0,0,1,14.68-4.52c8.79,0,13.66,5,13.66,15.55v19.65h-8.31l-.73-3.52h-.26c-2.89,2.54-6.13,4.35-10,4.35C659,153.6,655,149,655,143.23Zm19.35-.45v-6c-7.24,1-9.6,3-9.6,5.64,0,2.22,1.52,3.3,3.94,3.3S672.56,144.58,674.36,142.78Z"/><path class="cls-2" d="M693.23,140.27V126.39h-4.69v-7.6l5.26-.39,1.19-9.13h8.42v9.13h8.24v8h-8.24v13.76c0,3.89,1.77,5.46,4.45,5.46a10.11,10.11,0,0,0,3.27-.66l1.61,7.4a24.24,24.24,0,0,1-7.64,1.25C696.61,153.6,693.23,148.23,693.23,140.27Z"/><path class="cls-2" d="M717.6,108.05c0-3.13,2.47-5.33,5.89-5.33s5.89,2.2,5.89,5.33-2.48,5.32-5.89,5.32S717.6,111.14,717.6,108.05Zm.79,10.35h10.18v34.37H718.39Z"/><path class="cls-2" d="M735.51,135.59c0-11.42,8-18,16.74-18s16.74,6.6,16.74,18-8,18-16.74,18S735.51,147,735.51,135.59Zm23,0c0-5.94-2.1-9.81-6.31-9.81s-6.3,3.87-6.3,9.81,2.09,9.79,6.3,9.79S758.56,141.54,758.56,135.59Z"/><path class="cls-2" d="M776,118.4h8.31l.74,4.35h.25c2.89-2.78,6.36-5.18,11-5.18,7.48,0,10.66,5.27,10.66,13.86v21.34H796.77v-20c0-4.94-1.33-6.49-4.27-6.49-2.56,0-4.12,1.19-6.36,3.34v23.19H776Z"/><path class="cls-2" d="M463.71,213.21c0-14.67,8.65-23.61,20.18-23.61a16.93,16.93,0,0,1,12.51,5.61L493.23,199a12.36,12.36,0,0,0-9.24-4.29c-8.59,0-14.3,7-14.3,18.36s5.46,18.59,14.08,18.59c4.34,0,7.63-1.88,10.54-5.1l3.17,3.63a17.56,17.56,0,0,1-14,6.56C472.2,236.73,463.71,228,463.71,213.21Z"/><path class="cls-2" d="M502.88,219.11c0-11.24,7.35-17.72,15.6-17.72s15.61,6.48,15.61,17.72-7.35,17.62-15.61,17.62S502.88,230.26,502.88,219.11Zm25.32,0c0-7.72-3.93-13-9.72-13s-9.71,5.25-9.71,13S512.69,232,518.48,232,528.2,226.82,528.2,219.11Z"/><path class="cls-2" d="M542.93,202.23h4.71l.48,4.88h.19c2.94-3.19,6.47-5.72,10.48-5.72,5.14,0,7.91,2.47,9.29,6.42,3.5-3.78,7-6.42,11.11-6.42,6.92,0,10.24,4.58,10.24,13.17V235.9h-5.69V215.3c0-6.27-2-9-6.27-9-2.61,0-5.32,1.71-8.44,5.17V235.9h-5.7V215.3c0-6.27-2-9-6.26-9-2.53,0-5.33,1.71-8.44,5.17V235.9h-5.7Z"/><path class="cls-2" d="M600.36,202.23h4.71l.48,4.88h.19c2.94-3.19,6.47-5.72,10.48-5.72,5.14,0,7.91,2.47,9.29,6.42,3.5-3.78,7-6.42,11.11-6.42,6.92,0,10.24,4.58,10.24,13.17V235.9h-5.69V215.3c0-6.27-2-9-6.27-9-2.61,0-5.32,1.71-8.44,5.17V235.9h-5.7V215.3c0-6.27-2-9-6.26-9-2.53,0-5.33,1.71-8.44,5.17V235.9h-5.7Z"/><path class="cls-2" d="M657.34,223.56V202.23H663v20.6c0,6.27,1.89,8.95,6.35,8.95,3.44,0,5.83-1.7,9-5.67V202.23h5.7V235.9H679.4l-.48-5.27h-.19c-3.12,3.67-6.49,6.1-11.11,6.1C660.53,236.73,657.34,232.15,657.34,223.56Z"/><path class="cls-2" d="M695.48,202.23h4.71l.48,4.85h.19c3.21-3.16,6.67-5.69,11.29-5.69,7.1,0,10.28,4.58,10.28,13.17V235.9h-5.69V215.3c0-6.27-1.9-9-6.36-9-3.44,0-5.83,1.76-9.2,5.17V235.9h-5.7Z"/><path class="cls-2" d="M732.33,191.62a3.94,3.94,0,0,1,7.87,0,3.94,3.94,0,0,1-7.87,0Zm1,10.61h5.7V235.9h-5.7Z"/><path class="cls-2" d="M751.41,225.49V206.87h-5v-4.32l5.27-.32.68-9.45h4.76v9.45h9.13v4.64h-9.13v18.72c0,4.11,1.33,6.5,5.21,6.5a11.23,11.23,0,0,0,3.83-.9l1.11,4.29a20.08,20.08,0,0,1-6.25,1.25C753.84,236.73,751.41,232.19,751.41,225.49Z"/><path class="cls-2" d="M770.45,249.72l1.12-4.54a8.69,8.69,0,0,0,2.56.5c3.8,0,6.2-3.05,7.6-7.23l.76-2.48L769,202.23h5.87l6.87,18.64c1.06,2.92,2.19,6.37,3.29,9.49h.27c1-3.07,1.92-6.52,2.83-9.49l6-18.64h5.58L787,238.67c-2.38,6.69-5.86,11.74-12.61,11.74A11.09,11.09,0,0,1,770.45,249.72Z"/><path class="cls-2" d="M466.36,273.57h7L482,297.86c1.09,3.11,2.13,6.32,3.23,9.47h.28c1.09-3.15,2.05-6.36,3.14-9.47l8.61-24.29h7V319h-5.38V294c0-4,.45-9.42.74-13.45h-.28l-3.61,10.37-8.56,23.52h-3.84l-8.6-23.52-3.6-10.37h-.28c.29,4,.73,9.49.73,13.45v25h-5.23Z"/><path class="cls-2" d="M513.69,302.24c0-11,7.38-17.71,15.13-17.71,8.59,0,13.44,6.17,13.44,15.8a17.6,17.6,0,0,1-.27,3.24H519.32c.41,7.13,4.77,11.75,11.19,11.75a14.72,14.72,0,0,0,8.38-2.69l2,3.74a19.83,19.83,0,0,1-11.12,3.49C520.83,319.86,513.69,313.3,513.69,302.24Zm23.54-2.76c0-6.74-3-10.41-8.31-10.41-4.73,0-9,3.8-9.65,10.41Z"/><path class="cls-2" d="M550.55,285.36h4.71l.48,4.88h.19c2.94-3.18,6.47-5.71,10.47-5.71,5.15,0,7.91,2.46,9.3,6.41,3.5-3.78,7-6.41,11.11-6.41,6.92,0,10.24,4.58,10.24,13.17V319h-5.69v-20.6c0-6.27-2-8.95-6.27-8.95-2.61,0-5.33,1.7-8.44,5.17V319H571v-20.6c0-6.27-2-8.95-6.26-8.95-2.53,0-5.33,1.7-8.44,5.17V319h-5.7Z"/><path class="cls-2" d="M613.26,315.55h-.19l-.54,3.48H608V269.68h5.7v13.5l-.19,6c3.08-2.66,6.83-4.69,10.58-4.69,8.7,0,13.38,6.75,13.38,17.13,0,11.5-6.9,18.2-14.59,18.2C619.72,319.86,616.24,318.25,613.26,315.55Zm18.3-13.81c0-7.44-2.54-12.42-8.88-12.42-2.85,0-5.81,1.57-9,4.6v17.65a13,13,0,0,0,8.2,3.5C627.45,315.07,631.56,310.05,631.56,301.74Z"/><path class="cls-2" d="M643.79,302.24c0-11,7.39-17.71,15.14-17.71,8.59,0,13.43,6.17,13.43,15.8a18.62,18.62,0,0,1-.26,3.24H649.42c.41,7.13,4.77,11.75,11.19,11.75a14.7,14.7,0,0,0,8.38-2.69l2,3.74a19.8,19.8,0,0,1-11.12,3.49C650.94,319.86,643.79,313.3,643.79,302.24Zm23.54-2.76c0-6.74-3-10.41-8.3-10.41-4.74,0-9,3.8-9.66,10.41Z"/><path class="cls-2" d="M680.65,285.36h4.71l.48,6.13H686c2.34-4.27,5.79-7,9.57-7a7.9,7.9,0,0,1,3.6.69l-1.07,5a9.49,9.49,0,0,0-3.26-.55c-2.85,0-6.25,2-8.52,7.74V319h-5.7Z"/><line class="cls-3" x1="424.22" y1="70.87" x2="424.22" y2="354.33"/></g></g></svg>